<svg xmlns="http://www.w3.org/2000/svg" width="12.969" height="13.781" viewBox="0 0 12.969 13.781"><defs><style>.cls-1{fill:#13bf80;fill-rule:evenodd}</style></defs><path id="Shape_1_copy_4" data-name="Shape 1 copy 4" class="cls-1" d="M.677 7.92l1.656-2.048 2.972 3.236 6.435-8.9 1.913 1.532-8.22 11.16zm0 84l1.656-2.048 2.972 3.236 6.435-8.9 1.913 1.533L5.433 96.9zm0 28l1.656-2.048 2.972 3.237 6.435-8.9 1.913 1.532-8.22 11.159zm0 28l1.656-2.048 2.972 3.237 6.435-8.9 1.913 1.533-8.22 11.158zm0-112l1.656-2.048 2.972 3.236 6.435-8.9 1.913 1.533L5.433 40.9zm0 28l1.656-2.047 2.972 3.236 6.435-8.9 1.913 1.533L5.433 68.9z" transform="translate(-.688 -.219)"/></svg>