<svg xmlns="http://www.w3.org/2000/svg" width="70" height="420" viewBox="0 0 70 420"><svg width="70" viewBox="0 0 70 70" height="70" id="aa"><defs><style>.cls-1{fill:#fff;fill-rule:evenodd}</style></defs><path transform="translate(-1044 -1119)" class="cls-1" d="M1075 1135a1 1 0 0 1 1-1h6a1 1 0 0 1 0 2h-6a1 1 0 0 1-1-1zm4 37a1 1 0 1 0 1 1 1 1 0 0 0-1-1zm15-38v40a4.005 4.005 0 0 1-4 4h-22a4.005 4.005 0 0 1-4-4v-40a4 4 0 0 1 4-4h22a4.005 4.005 0 0 1 4 4zm-28 4h26v-4a2.006 2.006 0 0 0-2-2h-22a2.006 2.006 0 0 0-2 2v4zm26 32h-26v4a2.006 2.006 0 0 0 2 2h22a2.006 2.006 0 0 0 2-2v-4zm0-18v-12h-26v28h26v-16zm-22-7h-1v2h19v-2h-18zm0 6h-1v2h11v-2h-10z"/></svg><svg width="70" viewBox="0 0 70 70" height="70" id="ce" y="70"><defs><style>.cls-1{fill:#fff;fill-rule:evenodd}</style></defs><path transform="translate(-519 -1118)" class="cls-1" d="M575 1171h-5v-8a3 3 0 0 0-3-3h-3a3 3 0 0 0-3 3v8h-3v-22.01a2.994 2.994 0 0 0-3-2.99h-3a3 3 0 0 0-3 2.99v22h-3V1136a3 3 0 0 0-3-3.01h-3a3.008 3.008 0 0 0-3 3.01v35h-4a1 1 0 0 0 0 2h42a1 1 0 0 0 0-2zm-36 0v-34.99a1 1 0 0 1 1-1.01h3a1 1 0 0 1 1 1.01v35h-5zm12 0v-22.01a1 1 0 0 1 1-.99h3a.991.991 0 0 1 1 .99v22h-5zm12 0v-8a1 1 0 0 1 1-1h3a1 1 0 0 1 1 1v8h-5z"/></svg><svg width="70" viewBox="0 0 70 70" height="70" id="cr" y="140"><defs><style>.cls-1{fill:#fff;fill-rule:evenodd}</style></defs><path transform="translate(-870 -1119)" class="cls-1" d="M897.82 1152.7a1 1 0 0 0-1.414-1.42l-1.4 1.41-3.541 3.54a.994.994 0 0 0 0 1.41l3.541 3.54 1.4 1.41a1 1 0 0 0 1.414-1.42l-2.82-2.8-1.42-1.42 1.42-1.42zm10.106-4.64a.978.978 0 0 0-.924.12.959.959 0 0 0-.372.45l-.142.36-3.375 8.62-3.042 7.78a1 1 0 0 0 1.863.73l1.179-3.02 3.889-9.94 1.49-3.81a.971.971 0 0 0 .064-.36.988.988 0 0 0-.63-.9zm5.783 3.22c-.044-.04-.1-.06-.147-.1a1 1 0 0 0-1.267.1 1.006 1.006 0 0 0 0 1.42l1.267 1.26 2.97 2.97-2.97 2.98-1.267 1.26a1.006 1.006 0 0 0 0 1.42.994.994 0 0 0 1.267.09.935.935 0 0 0 .147-.09l4.945-4.95a.994.994 0 0 0 0-1.41zm-18.71-11.3a1 1 0 1 0-1-1 1 1 0 0 0 1 1zm-3 0a1 1 0 1 0-1-1 1 1 0 0 0 1 1zm-3 0a1 1 0 1 0-1-1 1 1 0 0 0 1 1zm37-3a3 3 0 0 0-3-3h-36a2.8 2.8 0 0 0-1 .19 2.993 2.993 0 0 0-2 2.81v33.99a3 3 0 0 0 3 3.01h36a3.012 3.012 0 0 0 3-3.01v-34zm-39-1h36a1 1 0 0 1 1 1 .016.016 0 0 1 0 .01v5h-38V1137a.016.016 0 0 1 0-.01 1.009 1.009 0 0 1 1-1zm37 34.99a1.008 1.008 0 0 1-1 1.01h-36a1 1 0 0 1-1-1.01v-27h38v26.99z"/></svg><svg width="70" viewBox="0 0 70 70" height="70" id="pe" y="210"><defs><style>.cls-1{fill:#fff;fill-rule:evenodd}</style></defs><path transform="translate(-341.5 -1120)" class="cls-1" d="M367 1145a5 5 0 1 1 0-10h18a5 5 0 1 1 0 10h-4.9v2h4.9a7 7 0 1 0 0-14h-18a7 7 0 1 0 0 14h1.967v-2h-1.97zm11 2v-2.51a3.492 3.492 0 0 0-6.984 0v2.5h6.98zm2.1 0zm-9.08 0v9.9l-2.8-2.8a3.013 3.013 0 0 0-2.117-.88 2.978 2.978 0 0 0-2.106.87 3.728 3.728 0 0 0-.392 4.57l8.713 12.57c.026.03.052.07.079.1a10.992 10.992 0 0 0 20.61-5.32v-7.1a3 3 0 0 0-5-2.24v-1.75a3 3 0 0 0-5.008-2.24 3 3 0 0 0-4.992-2v-3.8h-6.984zm-2.046 0zm4.046 1.48v-3.99a1.492 1.492 0 0 1 2.984 0v16.22a1 1 0 0 0 2 0v-7.94a2.027 2.027 0 0 0 1.337-.51.965.965 0 0 1 .66-.3.994.994 0 0 1 1 .93 2.182 2.182 0 0 0 .086.39.973.973 0 0 0-.083.39v8a1 1 0 0 0 2 0v-6.94a1.968 1.968 0 0 0 1.334-.51.969.969 0 0 1 .67-.3.992.992 0 0 1 1 1.01v7.7a1 1 0 0 0 2 0v-3.95a2.013 2.013 0 0 0 1.334-.5.969.969 0 0 1 .67-.3 1 1 0 0 1 1 1v7.01a8.992 8.992 0 0 1-16.861 4.35 2.779 2.779 0 0 0-.16-.24l-.025-.03-8.713-12.57a1.746 1.746 0 0 1 .155-2.01 1.02 1.02 0 0 1 .7-.29.994.994 0 0 1 .7.3l2.8 2.8a2 2 0 0 0 1.414.58 2.048 2.048 0 0 0 .766-.15 2 2 0 0 0 1.234-1.85v-8.42z"/></svg><svg width="70" viewBox="0 0 70 70" height="70" id="pt" y="280"><defs><style>.cls-1{fill:#fff;fill-rule:evenodd}</style></defs><path transform="translate(-694.25 -1118.7)" class="cls-1" d="M746.74 1166.5l-2.667-2.67-.6-.59-2.308-2.31a2.971 2.971 0 0 0-3.368-.58l-2.2-2.2a13.7 13.7 0 1 0-5.531 4.25c.375-.16.74-.34 1.1-.53a13.575 13.575 0 0 0 3.108-2.25l2.127 2.13a2.961 2.961 0 0 0 .577 3.37l2.906 2.9.389.39 2.279 2.28a2.963 2.963 0 1 0 4.19-4.19m-15.576-6.92a11.882 11.882 0 1 1 5.175-7.67 11.731 11.731 0 0 1-1.123 3.21 11.908 11.908 0 0 1-4.052 4.46m14.186 9.72a1 1 0 0 1-1.4-.01l-.881-.88-1.787-1.78-2.907-2.91a.975.975 0 0 1-.254-.91l.733-.74a.984.984 0 0 1 .918.25l2.907 2.91.8.8 1.87 1.87a.982.982 0 0 1 .006 1.4"/></svg><svg width="70" viewBox="0 0 70 70" height="70" id="se" y="350"><defs><style>.cls-1{fill:#fff;fill-rule:evenodd}</style></defs><path transform="translate(-168 -1118.5)" class="cls-1" d="M223 1133h-40a3.029 3.029 0 0 0-3 3v35a3 3 0 0 0 3 3h40a3 3 0 0 0 3-3v-35a3 3 0 0 0-3-3zm-41 3a1 1 0 0 1 1-1h40a1 1 0 0 1 1 1v5h-42v-5zm42 35a1 1 0 0 1-1 1h-40a1 1 0 0 1-1-1v-28h42v28zm-6-24a3.006 3.006 0 0 0-3 3 2.911 2.911 0 0 0 .311 1.3 1.389 1.389 0 0 0-.111.1l-5.241 6.99-4.191-5.03a1 1 0 0 0-1.6.09l-5.322 7.98-4.139-4.14a1 1 0 0 0-1.466.06l-6 7a1 1 0 1 0 1.518 1.3l5.3-6.18 4.236 4.24a1 1 0 0 0 1.539-.16l5.257-7.88 4.143 4.97a1 1 0 0 0 1.568-.04l5.923-7.9a2.888 2.888 0 0 0 1.277.3 3 3 0 0 0-.01-6.1zm0 4a1 1 0 1 1 1-1 1 1 0 0 1-1 1zm-33-12a1 1 0 1 1 1-1 1 1 0 0 1-1 1zm2-1a1 1 0 1 1 1 1 1 1 0 0 1-1-1zm3 0a1 1 0 1 1 1 1 1 1 0 0 1-1-1z"/></svg></svg>