<svg xmlns="http://www.w3.org/2000/svg" width="20" height="26" viewBox="0 0 20 26"><defs><style>.cls-1{fill:#fff;fill-rule:evenodd}</style></defs><path id="Rounded_Rectangle_1" data-name="Rounded Rectangle 1" class="cls-1" d="M937.99 3527.07a9.965 9.965 0 1 1-10 9.96 9.98 9.98 0 0 1 10-9.96zm.01 1.3a8.665 8.665 0 1 1-8.7 8.66 8.679 8.679 0 0 1 8.7-8.66zm-.009 5.64a3.03 3.03 0 1 1-3.044 3.03 3.039 3.039 0 0 1 3.044-3.03zm3.922-5.81v-1.57a3.913 3.913 0 0 0-7.826 0v1.52a9.413 9.413 0 0 0-1.739 1v-2.52a5.652 5.652 0 0 1 11.3 0v2.6a9.549 9.549 0 0 0-1.735-1.03z" transform="translate(-928 -3521)"/></svg>