<svg xmlns="http://www.w3.org/2000/svg" width="138" height="29" viewBox="0 0 138 29"><defs><style>.cls-1{fill:#6c6c73;fill-rule:evenodd}</style></defs><path id="logo" class="cls-1" d="M79.372 3912.06c-2.68-3.01-1.477 1.37-6.017 1.37s-3.337-4.38-6.017-1.37a12.054 12.054 0 0 0-3.338 8.28v.01c.041.23 1.142 6.12 9.355 8.52.153-.02 9.347-1.15 9.347-8.53a12.054 12.054 0 0 0-3.33-8.28zm-6.023 13.58c-5.082 0-7.243-2.86-7.243-5.31a4.365 4.365 0 0 1 4.288-4.43 4.227 4.227 0 0 1 2.955 1.22 4.227 4.227 0 0 1 2.955-1.22 4.365 4.365 0 0 1 4.288 4.43c0 2.45-2.162 5.31-7.243 5.31zm-3.824-4.98a.916.916 0 1 1 .915.95.927.927 0 0 1-.915-.95zm5.566 0a.916.916 0 1 1 .915.95.927.927 0 0 1-.915-.95zM64 3922.05c0 10.68 8.373 17.95 18.7 17.95v-2.5c0-3.11-.276-5.75-7.354-7.26-9.683-2.06-11.347-8.19-11.347-8.19m18.7 1.11c-1.032 4.33-7.31 6.09-8.178 6.12.343.08.456.1.823.17 5.707 1.15 6.867 3.1 7.354 4.65v-10.94M100.03 3934h-.262a6.363 6.363 0 0 1-4.81-2.14 7.1 7.1 0 0 1-2.011-5.02 6.881 6.881 0 0 1 2.041-4.97 6.718 6.718 0 0 1 5.014-2.1 6.6 6.6 0 0 1 5.073 2.33v1.53a6.87 6.87 0 0 0-2.289-2.2 5.673 5.673 0 0 0-7.113 1.04 6.333 6.333 0 0 0 0 8.83 5.666 5.666 0 0 0 4.212 1.86 5.578 5.578 0 0 0 2.9-.82 6.681 6.681 0 0 0 2.289-2.23v1.57a6.444 6.444 0 0 1-5.044 2.32zm12.506-.96v.84a4.865 4.865 0 0 1-3.527-1.43 4.926 4.926 0 0 1-1.458-3.66V3911h.933v17.79a4.167 4.167 0 0 0 1.181 3.04 3.848 3.848 0 0 0 2.871 1.21zm7.725.93H120a6.478 6.478 0 0 1-4.825-2.15 7.053 7.053 0 0 1-2.055-5.02 6.873 6.873 0 0 1 2.041-4.96 6.751 6.751 0 0 1 5.043-2.1 6.633 6.633 0 0 1 5.16 2.48l-9.154 9.34a5.793 5.793 0 0 0 3.644 1.57 6.008 6.008 0 0 0 3.134-.83 6.919 6.919 0 0 0 2.288-2.22v1.54a6.435 6.435 0 0 1-5.015 2.35zm-.306-13.38a5.584 5.584 0 0 0-4.11 1.85 5.974 5.974 0 0 0-1.793 4.27 6.3 6.3 0 0 0 1.545 4.22l8.483-8.71a5.971 5.971 0 0 0-4.125-1.63zm19.225-.54h.845l-6.442 13.95-6.471-13.95h1.02l5.539 11.9zm9.882 13.92h-.262a6.478 6.478 0 0 1-4.825-2.15 7.053 7.053 0 0 1-2.055-5.02 6.873 6.873 0 0 1 2.041-4.96 6.751 6.751 0 0 1 5.043-2.1 6.633 6.633 0 0 1 5.16 2.48l-9.154 9.34a5.793 5.793 0 0 0 3.644 1.57 6.008 6.008 0 0 0 3.134-.83 6.919 6.919 0 0 0 2.288-2.22v1.54a6.435 6.435 0 0 1-5.014 2.35zm-.306-13.38a5.584 5.584 0 0 0-4.11 1.85 5.974 5.974 0 0 0-1.793 4.27 6.3 6.3 0 0 0 1.545 4.22l8.483-8.71a5.971 5.971 0 0 0-4.125-1.63zm13.016-.03a3.716 3.716 0 0 0-2.726 1.2 3.9 3.9 0 0 0-1.18 2.81v9.04h-.933v-13.56h.933v2.02a4.133 4.133 0 0 1 1.632-1.69 4.754 4.754 0 0 1 2.478-.67 4.267 4.267 0 0 1 2.623.97v1.2a3.878 3.878 0 0 0-2.827-1.32zm17.49-.51h.938v12.29a7.831 7.831 0 0 1-1.866 5.52 6.342 6.342 0 0 1-4.9 2.02 7.211 7.211 0 0 1-3.236-.78 6.422 6.422 0 0 1-2.448-2.05v-1.39a6.137 6.137 0 0 0 2.376 2.41 6.421 6.421 0 0 0 3.308.97 5.412 5.412 0 0 0 4.2-1.8 7 7 0 0 0 1.632-4.9v-2.02a6.081 6.081 0 0 1-2.478 2.66 6.832 6.832 0 0 1-3.5.99 6.613 6.613 0 0 1-4.9-2.09 7.194 7.194 0 0 1 0-10.04 6.586 6.586 0 0 1 4.9-2.1 6.841 6.841 0 0 1 3.542.98 6.031 6.031 0 0 1 2.434 2.7v-3.37zm-11.981 6.81a6.108 6.108 0 0 0 1.793 4.41 5.713 5.713 0 0 0 4.256 1.86 5.575 5.575 0 0 0 4.212-1.86 6.444 6.444 0 0 0 0-8.83 5.6 5.6 0 0 0-4.212-1.85 5.74 5.74 0 0 0-4.256 1.85 6.147 6.147 0 0 0-1.793 4.42zm17.258-10.1a.816.816 0 1 1 .845-.81.732.732 0 0 1-.845.81zm.466 3.32v13.53h-.933v-13.53h.933zm16.062-.03H202v12.29a7.831 7.831 0 0 1-1.866 5.52 6.342 6.342 0 0 1-4.9 2.02 7.211 7.211 0 0 1-3.236-.78 6.418 6.418 0 0 1-2.449-2.05v-1.39a6.137 6.137 0 0 0 2.376 2.41 6.424 6.424 0 0 0 3.309.97 5.408 5.408 0 0 0 4.2-1.8 7 7 0 0 0 1.633-4.9v-2.02a6.087 6.087 0 0 1-2.478 2.66 6.832 6.832 0 0 1-3.5.99 6.615 6.615 0 0 1-4.9-2.09 7.2 7.2 0 0 1 0-10.04 6.588 6.588 0 0 1 4.9-2.1 6.841 6.841 0 0 1 3.542.98 6.037 6.037 0 0 1 2.434 2.7v-3.37zm-11.981 6.81a6.1 6.1 0 0 0 1.793 4.41 5.712 5.712 0 0 0 4.256 1.86 5.575 5.575 0 0 0 4.212-1.86 6.447 6.447 0 0 0 0-8.83 5.6 5.6 0 0 0-4.212-1.85 5.738 5.738 0 0 0-4.256 1.85 6.143 6.143 0 0 0-1.793 4.42z" transform="translate(-64 -3911)"/></svg>