<svg xmlns="http://www.w3.org/2000/svg" width="174" height="36" viewBox="0 0 174 36"><defs><style>.cls-1{fill:#03cea4;fill-rule:evenodd}</style></defs><path class="cls-1" d="M19.382 1.315c-3.379-3.737-1.862 1.706-7.586 1.706S7.589-2.422 4.21 1.315A14.857 14.857 0 0 0 0 11.592v.01c.052.285 1.44 7.6 11.8 10.579.193-.019 11.785-1.429 11.785-10.589a14.857 14.857 0 0 0-4.203-10.277zm-7.595 16.858c-6.407 0-9.133-3.545-9.133-6.585a5.457 5.457 0 0 1 5.407-5.5 5.336 5.336 0 0 1 3.726 1.518 5.336 5.336 0 0 1 3.726-1.518 5.457 5.457 0 0 1 5.407 5.5c0 3.04-2.725 6.585-9.133 6.585zM6.966 12a1.154 1.154 0 1 1 1.154 1.176A1.165 1.165 0 0 1 6.966 12zm7.018 0a1.154 1.154 0 1 1 1.154 1.176A1.165 1.165 0 0 1 13.984 12zM0 13.717C0 26.974 10.557 36 23.58 36v-3.107c0-3.862-.348-7.137-9.272-9.008C2.1 21.326 0 13.717 0 13.717m23.582 1.373c-1.3 5.375-9.217 7.563-10.311 7.6.432.105.575.13 1.037.221 7.2 1.419 8.659 3.839 9.272 5.77V15.093m21.85 13.461h-.33a8.094 8.094 0 0 1-6.065-2.656 8.734 8.734 0 0 1-2.536-6.23 8.833 8.833 0 0 1 8.895-8.775 8.375 8.375 0 0 1 6.4 2.881v1.908a8.59 8.59 0 0 0-2.885-2.731 7.22 7.22 0 0 0-8.968 1.291 7.778 7.778 0 0 0 0 10.964A7.218 7.218 0 0 0 48.9 26.5a8.456 8.456 0 0 0 2.885-2.769v1.946a8.185 8.185 0 0 1-6.355 2.877zm15.768-1.2v1.048a6.163 6.163 0 0 1-4.447-1.778 6.044 6.044 0 0 1-1.838-4.546V0h1.176v22.077a5.136 5.136 0 0 0 1.489 3.779 4.913 4.913 0 0 0 3.622 1.501zm9.74 1.16h-.331a8.2 8.2 0 0 1-6.083-2.676 8.676 8.676 0 0 1-2.591-6.23 8.457 8.457 0 0 1 2.573-6.155 8.594 8.594 0 0 1 6.359-2.6 8.414 8.414 0 0 1 6.506 3.069l-11.542 11.6a7.389 7.389 0 0 0 4.6 1.946 7.634 7.634 0 0 0 3.951-1.029 8.76 8.76 0 0 0 2.885-2.75V25.6a8.177 8.177 0 0 1-6.327 2.917zM70.552 11.9a7.068 7.068 0 0 0-5.182 2.3 7.344 7.344 0 0 0-2.261 5.3 7.741 7.741 0 0 0 1.948 5.238l10.7-10.813a7.62 7.62 0 0 0-5.205-2.025zm24.24-.674h1.066L87.735 28.55l-8.16-17.324h1.287l6.984 14.78zm12.46 17.287h-.33a8.2 8.2 0 0 1-6.083-2.676 8.673 8.673 0 0 1-2.592-6.23 8.461 8.461 0 0 1 2.573-6.155 8.594 8.594 0 0 1 6.359-2.6 8.414 8.414 0 0 1 6.506 3.069l-11.542 11.6a7.391 7.391 0 0 0 4.595 1.946 7.634 7.634 0 0 0 3.951-1.029 8.741 8.741 0 0 0 2.885-2.75V25.6a8.177 8.177 0 0 1-6.322 2.917zm-.385-16.613a7.07 7.07 0 0 0-5.183 2.3 7.344 7.344 0 0 0-2.261 5.3 7.741 7.741 0 0 0 1.948 5.238l10.7-10.813a7.616 7.616 0 0 0-5.204-2.025zm16.411-.038a4.711 4.711 0 0 0-3.437 1.5 4.786 4.786 0 0 0-1.489 3.48v11.225h-1.176V11.23h1.176v2.507a5.246 5.246 0 0 1 2.059-2.1 6.043 6.043 0 0 1 3.124-.823 5.409 5.409 0 0 1 3.308 1.2v1.5a4.918 4.918 0 0 0-3.565-1.648zm22.053-.636h1.176V26.5a9.616 9.616 0 0 1-2.352 6.848 8.077 8.077 0 0 1-6.175 2.507 9.177 9.177 0 0 1-4.08-.973 7.952 7.952 0 0 1-3.088-2.545v-1.721a7.681 7.681 0 0 0 3 2.994 8.149 8.149 0 0 0 4.172 1.2 6.88 6.88 0 0 0 5.292-2.227 8.6 8.6 0 0 0 2.059-6.08V23.99a7.577 7.577 0 0 1-3.124 3.292 8.693 8.693 0 0 1-4.411 1.235 8.375 8.375 0 0 1-6.175-2.6 8.829 8.829 0 0 1 0-12.46 8.379 8.379 0 0 1 6.175-2.6 8.691 8.691 0 0 1 4.466 1.217 7.452 7.452 0 0 1 3.069 3.348v-4.19zm-15.107 8.456a7.552 7.552 0 0 0 2.261 5.482 7.267 7.267 0 0 0 5.366 2.3 7.091 7.091 0 0 0 5.311-2.3 7.914 7.914 0 0 0 0-10.964 7.09 7.09 0 0 0-5.311-2.3 7.266 7.266 0 0 0-5.366 2.3 7.555 7.555 0 0 0-2.261 5.486zm21.76-12.535a1.011 1.011 0 1 1 1.065-1.01.919.919 0 0 1-1.065 1.014zm.587 4.116v16.8H151.4v-16.8h1.176zm20.253-.037H174V26.5a9.616 9.616 0 0 1-2.352 6.848 8.078 8.078 0 0 1-6.176 2.507 9.176 9.176 0 0 1-4.079-.973 7.938 7.938 0 0 1-3.088-2.545v-1.721a7.681 7.681 0 0 0 3 2.994 8.148 8.148 0 0 0 4.171 1.2 6.882 6.882 0 0 0 5.293-2.227 8.609 8.609 0 0 0 2.059-6.08V23.99a7.573 7.573 0 0 1-3.125 3.292 8.687 8.687 0 0 1-4.41 1.235 8.373 8.373 0 0 1-6.175-2.6 8.829 8.829 0 0 1 0-12.46 8.377 8.377 0 0 1 6.175-2.6 8.691 8.691 0 0 1 4.466 1.217 7.452 7.452 0 0 1 3.069 3.348v-4.19zm-15.107 8.456a7.548 7.548 0 0 0 2.261 5.482 7.266 7.266 0 0 0 5.366 2.3 7.092 7.092 0 0 0 5.311-2.3 7.917 7.917 0 0 0 0-10.964 7.091 7.091 0 0 0-5.311-2.3 7.265 7.265 0 0 0-5.366 2.3 7.551 7.551 0 0 0-2.261 5.486z"/></svg>