<svg xmlns="http://www.w3.org/2000/svg" width="18" height="19" viewBox="0 0 18 19"><defs><style>.cls-1{fill:#fff;fill-rule:evenodd}</style></defs><path id="_" data-name="@" class="cls-1" d="M536.11 3536.2c-.3 1.69-1.756 3.71-3.347 3.71a1.8 1.8 0 0 1-1.811-2.07c0-2.65 1.948-4.92 4.362-4.92a4.842 4.842 0 0 1 1.372.19zm1.646 7.53a8.57 8.57 0 0 1-4.143.96c-4.061 0-7.051-2.82-7.051-7.37 0-5.54 3.759-9.06 8.231-9.06 4.253 0 6.639 2.83 6.639 6.79 0 3.17-1.563 5.02-2.963 5-.905-.03-1.234-.99-.823-3.06l.933-4.94a7.228 7.228 0 0 0-2.936-.57 6.457 6.457 0 0 0-6.5 6.46c0 2.16 1.372 3.44 2.963 3.44a4.314 4.314 0 0 0 3.869-2.4h.109a2.02 2.02 0 0 0 2.031 2.4c2.579 0 4.883-2.4 4.883-6.49a7.6 7.6 0 0 0-7.984-7.89c-6.09 0-10.014 4.86-10.014 10.48a8.149 8.149 0 0 0 8.313 8.52 9.95 9.95 0 0 0 4.884-1.1z" transform="translate(-525 -3527)"/></svg>