<svg xmlns="http://www.w3.org/2000/svg" width="34" height="22" viewBox="0 0 34 22"><defs><style>.cls-1{fill:#fff;fill-rule:evenodd}</style></defs><path id="_" data-name="“" class="cls-1" d="M210.532 2172.01a17.863 17.863 0 0 1-6.709-1.17 14.368 14.368 0 0 1-4.861-3.11 13.052 13.052 0 0 1-2.958-4.48 14.212 14.212 0 0 1-1-5.29 11.556 11.556 0 0 1 .475-3.51 7.482 7.482 0 0 1 1.286-2.48 5.335 5.335 0 0 1 1.867-1.49 5.163 5.163 0 0 1 2.219-.49 4.465 4.465 0 0 1 2.007.41 4.329 4.329 0 0 1 1.391 1.02 4.27 4.27 0 0 1 .811 1.38 4.5 4.5 0 0 1 .264 1.47 4.639 4.639 0 0 1-.458 2.22 12.816 12.816 0 0 1-1.022 1.57 12.931 12.931 0 0 0-1.021 1.59 4.725 4.725 0 0 0-.458 2.24 4.318 4.318 0 0 0 .7 2.44 5.871 5.871 0 0 0 1.85 1.77 8.486 8.486 0 0 0 2.606 1.04 11.585 11.585 0 0 0 3.011.3v4.57zm18.456 0a17.872 17.872 0 0 1-6.71-1.17 14.363 14.363 0 0 1-4.86-3.11 12.837 12.837 0 0 1-2.941-4.48 14.44 14.44 0 0 1-.986-5.29 11.556 11.556 0 0 1 .475-3.51 7.482 7.482 0 0 1 1.286-2.48 5.335 5.335 0 0 1 1.867-1.49 5.163 5.163 0 0 1 2.219-.49 4.465 4.465 0 0 1 2.007.41 4.344 4.344 0 0 1 1.392 1.02 4.285 4.285 0 0 1 .81 1.38 4.5 4.5 0 0 1 .264 1.47 4.639 4.639 0 0 1-.458 2.22 12.816 12.816 0 0 1-1.022 1.57 12.931 12.931 0 0 0-1.021 1.59 4.725 4.725 0 0 0-.458 2.24 4.394 4.394 0 0 0 .687 2.44 5.693 5.693 0 0 0 1.831 1.77 8.5 8.5 0 0 0 2.607 1.04 11.585 11.585 0 0 0 3.011.3v4.57z" transform="translate(-195 -2150)"/></svg>