<svg xmlns="http://www.w3.org/2000/svg" width="34" height="22" viewBox="0 0 34 22"><defs><style>.cls-1{fill:#fff;fill-rule:evenodd}</style></defs><path id="_copy" data-name="“ copy" class="cls-1" d="M1129.47 2172.01a17.9 17.9 0 0 0 6.71-1.17 14.5 14.5 0 0 0 4.86-3.11 13.115 13.115 0 0 0 2.96-4.48 14.208 14.208 0 0 0 1-5.29 11.455 11.455 0 0 0-.48-3.51 7.347 7.347 0 0 0-1.28-2.48 5.3 5.3 0 0 0-1.87-1.49 5.138 5.138 0 0 0-2.22-.49 4.437 4.437 0 0 0-2 .41 4.089 4.089 0 0 0-2.21 2.4 4.655 4.655 0 0 0-.26 1.47 4.58 4.58 0 0 0 .46 2.22 11.73 11.73 0 0 0 1.02 1.57 11.945 11.945 0 0 1 1.02 1.59 4.665 4.665 0 0 1 .46 2.24 4.315 4.315 0 0 1-.71 2.44 5.879 5.879 0 0 1-1.84 1.77 8.643 8.643 0 0 1-2.61 1.04 11.616 11.616 0 0 1-3.01.3v4.57zm-18.46 0a17.864 17.864 0 0 0 6.71-1.17 14.3 14.3 0 0 0 4.86-3.11 12.779 12.779 0 0 0 2.94-4.48 14.4 14.4 0 0 0 .99-5.29 11.455 11.455 0 0 0-.48-3.51 7.347 7.347 0 0 0-1.28-2.48 5.3 5.3 0 0 0-1.87-1.49 5.138 5.138 0 0 0-2.22-.49 4.51 4.51 0 0 0-2.01.41 4.113 4.113 0 0 0-2.2 2.4 4.655 4.655 0 0 0-.26 1.47 4.58 4.58 0 0 0 .46 2.22 11.73 11.73 0 0 0 1.02 1.57 14.364 14.364 0 0 1 1.02 1.59 4.665 4.665 0 0 1 .46 2.24 4.38 4.38 0 0 1-.69 2.44 5.74 5.74 0 0 1-1.83 1.77 8.44 8.44 0 0 1-2.61 1.04 11.529 11.529 0 0 1-3.01.3v4.57z" transform="translate(-1111 -2150)"/></svg>