<svg xmlns="http://www.w3.org/2000/svg" xmlns:xlink="http://www.w3.org/1999/xlink" width="24.32" height="13.88" viewBox="0 0 24.32 13.88">
  <metadata><?xpacket begin="﻿" id="W5M0MpCehiHzreSzNTczkc9d"?>
<x:xmpmeta xmlns:x="adobe:ns:meta/" x:xmptk="Adobe XMP Core 5.6-c138 79.159824, 2016/09/14-01:09:01        ">
   <rdf:RDF xmlns:rdf="http://www.w3.org/1999/02/22-rdf-syntax-ns#">
      <rdf:Description rdf:about=""/>
   </rdf:RDF>
</x:xmpmeta>
                                                                                                    
                                                                                                    
                                                                                                    
                                                                                                    
                                                                                                    
                                                                                                    
                                                                                                    
                                                                                                    
                                                                                                    
                                                                                                    
                                                                                                    
                                                                                                    
                                                                                                    
                                                                                                    
                                                                                                    
                                                                                                    
                                                                                                    
                                                                                                    
                                                                                                    
                                                                                                    
                           
<?xpacket end="w"?></metadata>
<defs>
    <style>
      .cls-1 {
        fill: #fff;
        fill-rule: evenodd;
        opacity: 0.2;
        filter: url(#filter);
      }
    </style>
    <filter id="filter" x="1517.09" y="3228" width="24.32" height="13.88" filterUnits="userSpaceOnUse">
      <feFlood result="flood"/>
      <feComposite result="composite" operator="in" in2="SourceGraphic"/>
      <feBlend result="blend" in2="SourceGraphic"/>
    </filter>
  </defs>
  <path id="Фигура_1" data-name="Фигура 1" class="cls-1" d="M1528.99,3241.82h1.45a1.271,1.271,0,0,0,.67-0.29,1.116,1.116,0,0,0,.2-0.64s-0.03-1.95.87-2.23,2.04,1.88,3.26,2.71a2.33,2.33,0,0,0,1.61.5l3.25-.05s1.7-.1.89-1.44a10.38,10.38,0,0,0-2.41-2.79c-2.04-1.89-1.76-1.59.69-4.85,1.49-1.99,2.09-3.21,1.9-3.73-0.17-.5-1.27-0.36-1.27-0.36l-3.66.02a0.81,0.81,0,0,0-.47.08,0.984,0.984,0,0,0-.32.39,20.723,20.723,0,0,1-1.36,2.85c-1.62,2.77-2.28,2.91-2.54,2.74-0.62-.4-0.47-1.61-0.47-2.46,0-2.68.41-3.8-.79-4.09a6.425,6.425,0,0,0-1.7-.17,8.115,8.115,0,0,0-3.04.31c-0.41.21-.74,0.66-0.54,0.69a1.608,1.608,0,0,1,1.08.54,3.568,3.568,0,0,1,.36,1.65s0.22,3.16-.5,3.55c-0.49.27-1.17-.28-2.62-2.79a22.367,22.367,0,0,1-1.31-2.7,1.1,1.1,0,0,0-.3-0.41,1.559,1.559,0,0,0-.56-0.23l-3.48.03a1.149,1.149,0,0,0-.71.24,0.757,0.757,0,0,0-.01.62s2.72,6.36,5.8,9.56A8.348,8.348,0,0,0,1528.99,3241.82Z" transform="translate(-1517.09 -3228)"/>
</svg>
